<svg version="1.1" xmlns="http://www.w3.org/2000/svg" xmlns:xlink="http://www.w3.org/1999/xlink" width="30" height="30" viewBox="0,0,256,256"><defs><clipPath id="clip-1"><rect x="0" y="0" width="30" height="30" id="clip0" fill="none"></rect></clipPath></defs><g fill="none" fill-rule="nonzero" stroke="none" stroke-width="1" stroke-linecap="butt" stroke-linejoin="miter" stroke-miterlimit="10" stroke-dasharray="" stroke-dashoffset="0" font-family="none" font-weight="none" font-size="none" text-anchor="none" style="mix-blend-mode: normal"><g transform="scale(8.53333,8.53333)"><g clip-path="url(#clip-1)"><path d="M23.7091,18.5839c-0.6142,-0.6395 -1.355,-0.9814 -2.1401,-0.9814c-0.7788,0 -1.5259,0.3356 -2.1654,0.9751l-2.0009,1.9945c-0.1646,-0.0886 -0.3292,-0.171 -0.4875,-0.2533c-0.2279,-0.1139 -0.4432,-0.2216 -0.6268,-0.3356c-1.8742,-1.1903 -3.5775,-2.7416 -5.211,-4.7487c-0.7915,-1.0004 -1.32336,-1.8426 -1.70959,-2.6973c0.5192,-0.4749 1.00039,-0.9688 1.46899,-1.4437c0.1773,-0.1773 0.3545,-0.3609 0.5318,-0.5382c1.3297,-1.32962 1.3297,-3.05184 0,-4.3815l-1.72853,-1.72855c-0.19628,-0.19629 -0.3989,-0.3989 -0.58885,-0.60152c-0.3799,-0.39256 -0.7788,-0.79779 -1.19036,-1.17769c-0.61417,-0.60785 -1.34865,-0.93076 -2.12112,-0.93076c-0.77247,0 -1.51961,0.32291 -2.15278,0.93076c-0.00633,0.00633 -0.00633,0.00633 -0.01266,0.01266l-2.15278,2.17177c-0.81046,0.81046 -1.27267,1.79821 -1.37398,2.94425c-0.15196,1.84886 0.39257,3.57108 0.81046,4.69808c1.02573,2.767 2.55801,5.3313 4.84375,8.0793c2.77329,3.3115 6.11005,5.9265 9.92175,7.769c1.4563,0.6902 3.4002,1.5069 5.5719,1.6462c0.133,0.0064 0.2723,0.0127 0.3989,0.0127c1.4627,0 2.691,-0.5255 3.6534,-1.5703c0.0064,-0.0126 0.019,-0.019 0.0254,-0.0316c0.3292,-0.3989 0.7091,-0.7598 1.108,-1.1461c0.2723,-0.2596 0.5509,-0.5318 0.8231,-0.8167c0.6269,-0.6522 0.9561,-1.412 0.9561,-2.1908c0,-0.7851 -0.3356,-1.5386 -0.9751,-2.1718zM25.9759,25.2512c-0.0064,0 -0.0064,0.0064 0,0c-0.247,0.266 -0.5002,0.5066 -0.7725,0.7725c-0.4116,0.3926 -0.8294,0.8041 -1.222,1.2663c-0.6395,0.6839 -1.393,1.0068 -2.3807,1.0068c-0.095,0 -0.1963,0 -0.2913,-0.0064c-1.8805,-0.1203 -3.6281,-0.8547 -4.9387,-1.4816c-3.5838,-1.7349 -6.73063,-4.1979 -9.34562,-7.3194c-2.15911,-2.6024 -3.60274,-5.0084 -4.55883,-7.5917c-0.58885,-1.5766 -0.80413,-2.80498 -0.70915,-3.96369c0.06332,-0.7408 0.34824,-1.35498 0.87377,-1.88051l2.15912,-2.15911c0.31025,-0.29126 0.6395,-0.44955 0.96242,-0.44955c0.39889,0 0.72181,0.2406 0.92442,0.44322c0.00634,0.00633 0.01267,0.01266 0.019,0.01899c0.38623,0.36091 0.75347,0.73448 1.13971,1.13338c0.19628,0.20261 0.39889,0.40522 0.60151,0.61417l1.72855,1.72856c0.6712,0.67116 0.6712,1.29166 0,1.96283c-0.18362,0.18361 -0.3609,0.36723 -0.54452,0.54452c-0.53187,0.54449 -1.0384,1.05109 -1.58926,1.54489c-0.01266,0.0127 -0.02533,0.019 -0.03166,0.0317c-0.54453,0.5445 -0.44322,1.0764 -0.32925,1.4373c0.00633,0.019 0.01267,0.038 0.019,0.057c0.44955,1.089 1.08272,2.1148 2.04514,3.3368l0.00633,0.0063c1.74752,2.1528 3.59012,3.8307 5.62252,5.116c0.2596,0.1647 0.5256,0.2976 0.7788,0.4243c0.228,0.1139 0.4433,0.2216 0.6269,0.3356c0.0253,0.0126 0.0506,0.0316 0.076,0.0443c0.2152,0.1076 0.4178,0.1583 0.6268,0.1583c0.5255,0 0.8548,-0.3293 0.9624,-0.4369l2.1655,-2.1655c0.2152,-0.2152 0.5571,-0.4748 0.956,-0.4748c0.3926,0 0.7155,0.2469 0.9118,0.4622c0.0063,0.0063 0.0063,0.0063 0.0127,0.0126l3.4887,3.4888c0.6522,0.6458 0.6522,1.3107 0.0064,1.9818z" fill="#3fbce2"></path><path d="M16.2124,7.13621c1.6589,0.2786 3.1658,1.06373 4.3689,2.26675c1.203,1.20304 1.9818,2.70994 2.2667,4.36884c0.0696,0.4179 0.4306,0.7092 0.8421,0.7092c0.0507,0 0.095,-0.0063 0.1456,-0.0127c0.4686,-0.076 0.7788,-0.5192 0.7029,-0.9877c-0.342,-2.0072 -1.2917,-3.83703 -2.7417,-5.28699c-1.4499,-1.44996 -3.2798,-2.39972 -5.2869,-2.74163c-0.4686,-0.07598 -0.9055,0.23427 -0.9878,0.69649c-0.0823,0.46221 0.2216,0.91176 0.6902,0.98774z" fill="#3fbce2"></path><path d="M29.9654,13.2337c-0.5635,-3.30519 -2.1211,-6.31275 -4.5145,-8.70613c-2.3934,-2.39339 -5.4009,-3.95099 -8.7061,-4.51451c-0.4622,-0.08231 -0.8991,0.23427 -0.9814,0.69649c-0.076,0.46855 0.2343,0.90543 0.7028,0.98775c2.9506,0.5002 5.6416,1.89951 7.7817,4.03329c2.1401,2.14012 3.5331,4.83111 4.0333,7.78171c0.0696,0.4179 0.4305,0.7091 0.8421,0.7091c0.0506,0 0.095,-0.0063 0.1456,-0.0127c0.4622,-0.0696 0.7788,-0.5128 0.6965,-0.975z" fill="#3fbce2"></path></g></g></g></svg>