<svg version="1.1" xmlns="http://www.w3.org/2000/svg" xmlns:xlink="http://www.w3.org/1999/xlink" width="30" height="30" viewBox="0,0,256,256"><defs><clipPath id="clip-1"><rect x="0" y="0" width="30" height="30" id="clip0" fill="none"></rect></clipPath></defs><g fill="none" fill-rule="nonzero" stroke="none" stroke-width="1" stroke-linecap="butt" stroke-linejoin="miter" stroke-miterlimit="10" stroke-dasharray="" stroke-dashoffset="0" font-family="none" font-weight="none" font-size="none" text-anchor="none" style="mix-blend-mode: normal"><g transform="scale(8.53333,8.53333)"><g clip-path="url(#clip-1)"><path d="M26.3377,3.58496h-22.66917c-2.02359,0 -3.66853,1.64494 -3.66853,3.66853v15.49351c0,2.0236 1.64494,3.6685 3.66853,3.6685h22.66297c2.0236,0 3.6685,-1.6449 3.6685,-3.6685v-15.4873c0.0062,-2.02359 -1.6387,-3.67474 -3.6623,-3.67474zM28.3302,22.747c0,1.0987 -0.8938,1.9925 -1.9925,1.9925h-22.66917c-1.0987,0 -1.99255,-0.8938 -1.99255,-1.9925v-15.4873c0,-1.0987 0.89385,-1.99255 1.99255,-1.99255h22.66297c1.0987,0 1.9925,0.89385 1.9925,1.99255v15.4873z" fill="#3fbce2"></path><path d="M18.9201,14.8079l7.3371,-6.57976c0.3414,-0.31037 0.3724,-0.83799 0.0621,-1.1856c-0.3104,-0.3414 -0.838,-0.37244 -1.1856,-0.06207l-10.118,9.08133l-1.9739,-1.7629c-0.0062,-0.0062 -0.0124,-0.0124 -0.0124,-0.0186c-0.0435,-0.0435 -0.0869,-0.0807 -0.1366,-0.118l-8.03226,-7.18804c-0.34761,-0.31037 -0.87523,-0.27933 -1.1856,0.06828c-0.31036,0.34761 -0.27933,0.87523 0.06828,1.1856l7.42398,6.63566l-7.39294,6.9211c-0.3352,0.3166 -0.35382,0.8442 -0.03724,1.1856c0.16759,0.1738 0.39106,0.267 0.61452,0.267c0.20484,0 0.40968,-0.0745 0.57107,-0.2235l7.50469,-7.0205l2.036,1.8187c0.1614,0.1428 0.36,0.2111 0.5586,0.2111c0.1987,0 0.4035,-0.0745 0.5587,-0.2173l2.0919,-1.8746l7.4612,7.0888c0.1614,0.1552 0.3724,0.2297 0.5772,0.2297c0.2235,0 0.4408,-0.0869 0.6084,-0.2607c0.3165,-0.3352 0.3041,-0.8691 -0.0311,-1.1856z" fill="#3fbce2"></path></g></g></g></svg>