<svg version="1.1" xmlns="http://www.w3.org/2000/svg" xmlns:xlink="http://www.w3.org/1999/xlink" width="30" height="30" viewBox="0,0,256,256"><g fill="#3fbce2" fill-rule="nonzero" stroke="none" stroke-width="1" stroke-linecap="butt" stroke-linejoin="miter" stroke-miterlimit="10" stroke-dasharray="" stroke-dashoffset="0" font-family="none" font-weight="none" font-size="none" text-anchor="none" style="mix-blend-mode: normal"><g transform="scale(8.53333,8.53333)"><path d="M17.8711,15c0,1.5857 -1.2854,2.8711 -2.8711,2.8711c-1.5857,0 -2.8711,-1.2854 -2.8711,-2.8711c0,-1.5857 1.2854,-2.8711 2.8711,-2.8711c1.5857,0 2.8711,1.2854 2.8711,2.8711z"></path><path d="M21.7144,9.92039c-0.138,-0.37399 -0.3582,-0.7125 -0.6443,-0.99037c-0.2778,-0.2861 -0.6161,-0.50628 -0.9904,-0.6443c-0.3035,-0.11787 -0.7594,-0.25818 -1.5992,-0.2964c-0.9084,-0.04143 -1.1808,-0.05036 -3.4806,-0.05036c-2.3,0 -2.5724,0.0087 -3.4806,0.05013c-0.8397,0.03845 -1.2959,0.17876 -1.59916,0.29663c-0.37423,0.13802 -0.71274,0.3582 -0.99038,0.6443c-0.2861,0.27787 -0.50628,0.61615 -0.64453,0.99037c-0.11787,0.30351 -0.25818,0.75971 -0.2964,1.59941c-0.04143,0.9082 -0.05035,1.1806 -0.05035,3.4806c0,2.2998 0.00892,2.5722 0.05035,3.4806c0.03822,0.8398 0.17853,1.2957 0.2964,1.5992c0.13825,0.3743 0.3582,0.7125 0.6443,0.9904c0.27787,0.2861 0.61615,0.5063 0.99038,0.6443c0.30349,0.1181 0.75969,0.2584 1.59939,0.2966c0.9082,0.0415 1.1804,0.0502 3.4804,0.0502c2.3003,0 2.5726,-0.0087 3.4806,-0.0502c0.8398,-0.0382 1.2959,-0.1785 1.5994,-0.2966c0.7512,-0.2898 1.345,-0.8835 1.6347,-1.6347c0.1179,-0.3035 0.2582,-0.7594 0.2966,-1.5992c0.0415,-0.9084 0.0502,-1.1808 0.0502,-3.4806c0,-2.3 -0.0087,-2.5724 -0.0502,-3.4806c-0.0382,-0.8397 -0.1785,-1.2959 -0.2966,-1.59941zM14.9999,19.4231c-2.4428,0 -4.4231,-1.98 -4.4231,-4.4229c0,-2.4429 1.9803,-4.4229 4.4231,-4.4229c2.4427,0 4.423,1.98 4.423,4.4229c0,2.4429 -1.9803,4.4229 -4.423,4.4229zM19.5977,11.4361c-0.5708,0 -1.0336,-0.4628 -1.0336,-1.0337c0,-0.57081 0.4628,-1.03361 1.0336,-1.03361c0.5708,0 1.0336,0.4628 1.0336,1.03361c-0.0002,0.5709 -0.4628,1.0337 -1.0336,1.0337z"></path><path d="M15,0c-8.283,0 -15,6.717 -15,15c0,8.283 6.717,15 15,15c8.283,0 15,-6.717 15,-15c0,-8.283 -6.717,-15 -15,-15zM23.5613,18.5511c-0.0416,0.9169 -0.1874,1.5429 -0.4003,2.0908c-0.4475,1.157 -1.3621,2.0716 -2.5191,2.5191c-0.5477,0.2129 -1.1739,0.3584 -2.0906,0.4003c-0.9185,0.0419 -1.2119,0.052 -3.5511,0.052c-2.3394,0 -2.6326,-0.0101 -3.5513,-0.052c-0.9167,-0.0419 -1.54289,-0.1874 -2.09061,-0.4003c-0.57495,-0.2163 -1.09543,-0.5553 -1.52572,-0.9936c-0.43808,-0.43 -0.77706,-0.9507 -0.99335,-1.5255c-0.21286,-0.5477 -0.35866,-1.1739 -0.40032,-2.0906c-0.04234,-0.9187 -0.05218,-1.2121 -0.05218,-3.5513c0,-2.3392 0.00984,-2.6326 0.05195,-3.5511c0.04166,-0.9169 0.18723,-1.54289 0.40009,-2.09084c0.21629,-0.57472 0.5555,-1.09543 0.99381,-1.52549c0.43006,-0.43831 0.95077,-0.77729 1.52549,-0.99358c0.54795,-0.21286 1.17394,-0.35843 2.09084,-0.40032c0.9185,-0.04188 1.2119,-0.05195 3.5511,-0.05195c2.3392,0 2.6326,0.01007 3.5511,0.05218c0.9169,0.04166 1.5429,0.18723 2.0908,0.39986c0.5748,0.21629 1.0955,0.5555 1.5258,0.99381c0.438,0.43029 0.7772,0.95077 0.9933,1.52549c0.2131,0.54795 0.3587,1.17394 0.4006,2.09084c0.0418,0.9185 0.0517,1.2119 0.0517,3.5511c0,2.3392 -0.0099,2.6326 -0.052,3.5511z"></path></g></g></svg>