<svg version="1.1" xmlns="http://www.w3.org/2000/svg" xmlns:xlink="http://www.w3.org/1999/xlink" width="30" height="30" viewBox="0,0,256,256"><g fill="#3fbce2" fill-rule="nonzero" stroke="none" stroke-width="1" stroke-linecap="butt" stroke-linejoin="miter" stroke-miterlimit="10" stroke-dasharray="" stroke-dashoffset="0" font-family="none" font-weight="none" font-size="none" text-anchor="none" style="mix-blend-mode: normal"><g transform="scale(8.53333,8.53333)"><path d="M13.1318,17.8104l4.8793,-2.8102l-4.8793,-2.8103z"></path><path d="M15,0c-8.283,0 -15,6.717 -15,15c0,8.283 6.717,15 15,15c8.283,0 15,-6.717 15,-15c0,-8.283 -6.717,-15 -15,-15zM24.3727,15.0153c0,0 0,3.0421 -0.3859,4.509c-0.2163,0.8029 -0.8494,1.436 -1.6523,1.6521c-1.4669,0.3861 -7.3345,0.3861 -7.3345,0.3861c0,0 -5.85228,0 -7.33452,-0.4015c-0.80292,-0.216 -1.436,-0.8493 -1.6523,-1.6523c-0.38612,-1.4513 -0.38612,-4.5087 -0.38612,-4.5087c0,0 0,-3.0418 0.38612,-4.5087c0.21607,-0.80296 0.86472,-1.45161 1.6523,-1.66768c1.46691,-0.38612 7.33452,-0.38612 7.33452,-0.38612c0,0 5.8676,0 7.3345,0.40146c0.8029,0.21606 1.436,0.84938 1.6523,1.65234c0.4015,1.4669 0.3859,4.524 0.3859,4.524z"></path></g></g></svg>